<svg class="" xmlns="http://www.w3.org/2000/svg" width="214" height="40" viewBox="0 0 214 40" fill="none">
  <path fill-rule="evenodd" clip-rule="evenodd"
    d="M36.7764 36.3121C39.9219 33.17 40.4643 26.6499 40.4643 20.0196L40.4608 20.0179C40.4608 16.2422 40.3214 12.4699 39.6 9.36049C39.173 7.52343 36.921 6.83991 35.5609 8.14668C35.0185 8.66836 34.7551 9.41042 34.836 10.1594C34.9273 10.9892 34.9496 11.888 34.9496 12.7884C34.9496 15.1816 34.7517 17.5334 33.6188 18.6663C32.4842 19.8026 30.1375 19.9972 27.7409 19.9972C25.3442 19.9972 22.9924 19.8026 21.8595 18.6698C20.7266 17.5317 20.5286 15.1799 20.5286 12.7884C20.5286 10.397 20.7215 8.03994 21.8595 6.90705C22.9941 5.77417 25.3494 5.4987 27.7374 5.57962L27.8044 5.58188L27.8044 5.58188C28.6996 5.61207 29.5899 5.6421 30.413 5.73113C31.1223 5.8086 31.8265 5.56756 32.3413 5.07343C33.729 3.73911 33.0695 1.39587 31.1894 0.979213C28.0968 0.294806 24.3409 0.167042 20.5793 0.0390821L20.4804 0.0357176C13.8536 -0.186383 7.32829 0.578055 4.1879 3.72362C1.04234 6.86745 0.5 13.3841 0.5 20.0196C0.503443 26.6499 1.04234 33.17 4.1879 36.3121C7.33346 39.4577 13.8536 40 20.4839 40C27.1142 40 33.636 39.4577 36.7764 36.3121ZM56.1111 5.21289V34.2219L56.1094 34.2237H60.3413V23.785L64.0568 19.9765L74.8726 34.2237H80.5129L67.0663 16.8723L80.184 5.21289H74.2269L60.3431 18.2824V5.21289H56.1111ZM88.975 34.2219L80.1357 10.9014H84.6019L91.4663 30.1794L98.3307 10.9014H102.704L93.9111 34.2219H88.975ZM108.158 33.8225C109.443 34.4646 111.026 34.7866 112.906 34.7867C114.879 34.7866 116.502 34.3699 117.771 33.5402C119.04 32.7086 120.035 31.6824 120.756 30.46C121.1 31.9648 121.76 32.9685 122.731 33.4696C123.702 33.9706 124.957 34.222 126.493 34.222H127.386V30.5547H127.058C126.462 30.5547 125.992 30.4927 125.647 30.3671C125.303 30.2414 125.06 29.9125 124.919 29.3788C124.778 28.8468 124.707 28.0152 124.707 26.8875V19.8819C124.707 16.998 123.869 14.6857 122.192 12.9468C120.515 11.2062 118.013 10.3367 114.692 10.3367C113.062 10.3367 111.526 10.6036 110.085 11.1356C108.642 11.6693 107.444 12.4837 106.488 13.5804C105.531 14.6771 104.959 16.0562 104.772 17.7177H109.004C109.253 16.3076 109.904 15.3038 110.954 14.7081C112.005 14.1124 113.249 13.8146 114.692 13.8146C116.447 13.8146 117.85 14.3259 118.9 15.3434C119.95 16.3627 120.475 17.8743 120.475 19.8801V20.9149C119.785 20.6652 118.909 20.4448 117.843 20.2572C116.777 20.0695 115.588 19.9748 114.27 19.9748C111.292 19.9748 108.887 20.6411 107.053 21.9737C105.219 23.3063 104.302 25.2415 104.302 27.781C104.302 29.0035 104.624 30.1553 105.266 31.2365C105.908 32.3177 106.872 33.1803 108.158 33.8225ZM117.115 30.3188C116.126 31.0093 114.944 31.3536 113.565 31.3536L113.566 31.3553C111.967 31.3553 110.736 30.9955 109.875 30.2741C109.012 29.5527 108.582 28.6436 108.582 27.5469C108.582 26.2935 109.061 25.2519 110.016 24.4203C110.972 23.5887 112.516 23.1738 114.647 23.1738C115.681 23.1738 116.715 23.2598 117.75 23.432C118.785 23.6042 119.661 23.8005 120.382 24.0191C120.321 25.2725 120.007 26.4639 119.442 27.5917C118.878 28.7211 118.103 29.6302 117.115 30.3188ZM140.473 34.7867C138.152 34.7867 136.131 34.2529 134.407 33.1889C132.684 32.1232 131.334 30.6666 130.363 28.8158C129.39 26.9667 128.905 24.8662 128.905 22.5161C128.905 20.1659 129.39 18.074 130.363 16.2387C131.334 14.4051 132.691 12.964 134.43 11.9138C136.169 10.8635 138.183 10.3384 140.471 10.3384C142.382 10.3384 144.068 10.7224 145.526 11.4902C146.984 12.2581 148.104 13.3325 148.887 14.7116V5.21289H153.119V34.2219H148.887V30.4135C148.135 31.5412 147.077 32.5519 145.714 33.4455C144.35 34.339 142.603 34.7849 140.471 34.7849L140.473 34.7867ZM141.038 31.1194C142.573 31.1194 143.922 30.7596 145.082 30.0382C146.241 29.3185 147.151 28.3148 147.809 27.0287C148.467 25.7443 148.797 24.255 148.797 22.5625C148.797 20.8701 148.469 19.3808 147.809 18.0964C147.151 16.812 146.241 15.8083 145.082 15.0869C143.922 14.3655 142.573 14.0057 141.038 14.0057C139.502 14.0057 138.185 14.3672 136.995 15.0869C135.804 15.8083 134.879 16.8034 134.221 18.0723C133.564 19.3412 133.235 20.8391 133.235 22.5625C133.235 24.286 133.564 25.7443 134.221 27.0287C134.879 28.3148 135.804 29.3168 136.995 30.0382C138.187 30.7596 139.535 31.1194 141.038 31.1194ZM158.575 10.9014V34.2219H162.807V23.1255C162.807 21.0888 163.019 19.4497 163.442 18.2118C163.866 16.9739 164.462 16.0734 165.23 15.5087C165.997 14.9457 166.882 14.6633 167.886 14.6633H171.788V10.7137H168.308C166.991 10.7137 165.879 11.0512 164.97 11.7244C164.061 12.3976 163.339 13.3462 162.807 14.5686V10.9014H158.575ZM182.883 34.7867C181.003 34.7866 179.42 34.4646 178.135 33.8225C176.849 33.1803 175.885 32.3177 175.243 31.2365C174.601 30.1553 174.279 29.0035 174.279 27.781C174.279 25.2415 175.196 23.3063 177.03 21.9737C178.864 20.6411 181.269 19.9748 184.247 19.9748C185.565 19.9748 186.754 20.0695 187.82 20.2572C188.886 20.4448 189.762 20.6652 190.453 20.9149V19.8801C190.453 17.8743 189.927 16.3627 188.877 15.3434C187.827 14.3259 186.424 13.8146 184.669 13.8146C183.227 13.8146 181.982 14.1124 180.931 14.7081C179.881 15.3038 179.23 16.3076 178.981 17.7177H174.749C174.936 16.0562 175.508 14.6771 176.465 13.5804C177.421 12.4837 178.619 11.6693 180.062 11.1356C181.503 10.6036 183.039 10.3367 184.669 10.3367C187.99 10.3367 190.492 11.2062 192.169 12.9468C193.846 14.6857 194.684 16.998 194.684 19.8819V26.8875C194.684 28.0152 194.755 28.8468 194.896 29.3788C195.037 29.9125 195.28 30.2414 195.625 30.3671C195.969 30.4927 196.439 30.5547 197.035 30.5547H197.363V34.222H196.47C194.934 34.222 193.679 33.9706 192.708 33.4696C191.737 32.9685 191.078 31.9648 190.733 30.46C190.012 31.6824 189.017 32.7086 187.748 33.5402C186.479 34.3699 184.856 34.7866 182.883 34.7867ZM182.883 34.7867C182.883 34.7867 182.882 34.7867 182.882 34.7867H182.884C182.884 34.7867 182.883 34.7867 182.883 34.7867ZM183.542 31.3536C184.921 31.3536 186.104 31.0093 187.092 30.3188C188.08 29.6302 188.855 28.7211 189.42 27.5917C189.984 26.4639 190.298 25.2725 190.36 24.0191C189.638 23.8005 188.762 23.6042 187.727 23.432C186.692 23.2598 185.658 23.1738 184.625 23.1738C182.493 23.1738 180.949 23.5887 179.993 24.4203C179.038 25.2519 178.559 26.2935 178.559 27.5469C178.559 28.6436 178.989 29.5527 179.852 30.2741C180.713 30.9955 181.944 31.3553 183.543 31.3553L183.542 31.3536ZM205.216 33.7278C206.125 34.0567 207.238 34.2219 208.555 34.2219H208.556H212.976V30.6012H210.108C209.168 30.6012 208.446 30.5461 207.945 30.4359C207.442 30.3274 207.114 30.0365 206.957 29.5664C206.799 29.0964 206.721 28.3613 206.721 27.3575V14.474H213.303V10.9014H206.721V5.21289H202.489V10.9014H198.445V14.474H202.489V28.0152C202.489 29.6766 202.716 30.961 203.171 31.8701C203.625 32.7809 204.307 33.399 205.216 33.7278Z"
    fill="currentColor" />
</svg>
